<svg xmlns="http://www.w3.org/2000/svg" viewBox="0 0 600 600" role="img" aria-label="Cepillo Térmico Redondo 43 mm">
<defs>
<linearGradient id="f" x1="0" y1="0" x2="0" y2="1"><stop offset="0" stop-color="#f4efec"/><stop offset="1" stop-color="#e0d6d0"/></linearGradient>
<radialGradient id="luz" cx="50%" cy="36%" r="58%"><stop offset="0" stop-color="#fff" stop-opacity=".7"/><stop offset="1" stop-color="#fff" stop-opacity="0"/></radialGradient>
<linearGradient id="b" x1="0" x2="1"><stop offset="0" stop-color="#453d41"/><stop offset=".45" stop-color="#262124"/><stop offset="1" stop-color="#1b181a"/></linearGradient>
<linearGradient id="t" x1="0" x2="1"><stop offset="0" stop-color="#109cdaf"/><stop offset=".5" stop-color="#d4a48c"/><stop offset="1" stop-color="#947362"/></linearGradient>
<filter id="s" x="-50%" y="-50%" width="200%" height="200%"><feGaussianBlur stdDeviation="12"/></filter>
</defs>
<rect width="600" height="600" fill="url(#f)"/><rect width="600" height="600" fill="url(#luz)"/>
<path d="M0 470 Q300 448 600 470 L600 600 L0 600Z" fill="#fff" opacity=".22"/>
<g transform="translate(300 330) scale(1.12) translate(-300 -330)"><ellipse cx="300" cy="470" rx="180" ry="16" fill="#000" opacity=".2" filter="url(#s)"/><g transform="rotate(-16 300 300)"><rect x="96" y="284" width="230" height="32" rx="16" fill="url(#b)"/><rect x="306" y="276" width="20" height="48" rx="6" fill="url(#t)"/><rect x="330" y="236" width="3" height="128" rx="1.5" fill="#262124"/><rect x="338" y="236" width="3" height="128" rx="1.5" fill="#262124"/><rect x="346" y="236" width="3" height="128" rx="1.5" fill="#262124"/><rect x="354" y="236" width="3" height="128" rx="1.5" fill="#262124"/><rect x="362" y="236" width="3" height="128" rx="1.5" fill="#262124"/><rect x="370" y="236" width="3" height="128" rx="1.5" fill="#262124"/><rect x="378" y="236" width="3" height="128" rx="1.5" fill="#262124"/><rect x="386" y="236" width="3" height="128" rx="1.5" fill="#262124"/><rect x="394" y="236" width="3" height="128" rx="1.5" fill="#262124"/><rect x="402" y="236" width="3" height="128" rx="1.5" fill="#262124"/><rect x="410" y="236" width="3" height="128" rx="1.5" fill="#262124"/><rect x="418" y="236" width="3" height="128" rx="1.5" fill="#262124"/><rect x="426" y="236" width="3" height="128" rx="1.5" fill="#262124"/><rect x="434" y="236" width="3" height="128" rx="1.5" fill="#262124"/><rect x="442" y="236" width="3" height="128" rx="1.5" fill="#262124"/><rect x="450" y="236" width="3" height="128" rx="1.5" fill="#262124"/><rect x="458" y="236" width="3" height="128" rx="1.5" fill="#262124"/><rect x="466" y="236" width="3" height="128" rx="1.5" fill="#262124"/><rect x="474" y="236" width="3" height="128" rx="1.5" fill="#262124"/><rect x="482" y="236" width="3" height="128" rx="1.5" fill="#262124"/><rect x="490" y="236" width="3" height="128" rx="1.5" fill="#262124"/><rect x="498" y="236" width="3" height="128" rx="1.5" fill="#262124"/><rect x="326" y="262" width="186" height="76" rx="22" fill="url(#t)"/><rect x="336" y="270" width="166" height="10" rx="5" fill="#fff" opacity=".35"/></g></g>
</svg>
